<svg width="26" height="28" viewBox="0 0 26 28" fill="none" xmlns="http://www.w3.org/2000/svg">
<path fill-rule="evenodd" clip-rule="evenodd" d="M12.9984 11.2C14.4306 11.2 15.8041 10.6311 16.8168 9.6184C17.8295 8.60571 18.3984 7.23219 18.3984 5.80002C18.3984 4.36786 17.8295 2.99434 16.8168 1.98165C15.8041 0.968952 14.4306 0.400024 12.9984 0.400024C11.5663 0.400024 10.1928 0.968952 9.18006 1.98165C8.16737 2.99434 7.59844 4.36786 7.59844 5.80002C7.59844 7.23219 8.16737 8.60571 9.18006 9.6184C10.1928 10.6311 11.5663 11.2 12.9984 11.2ZM0.398438 27.4C0.398437 25.7454 0.724346 24.1069 1.35756 22.5782C1.99076 21.0495 2.91887 19.6605 4.08889 18.4905C5.25891 17.3205 6.64792 16.3924 8.17663 15.7591C9.70533 15.1259 11.3438 14.8 12.9984 14.8C14.6531 14.8 16.2915 15.1259 17.8202 15.7591C19.349 16.3924 20.738 17.3205 21.908 18.4905C23.078 19.6605 24.0061 21.0495 24.6393 22.5782C25.2725 24.1069 25.5984 25.7454 25.5984 27.4H0.398438Z" fill="#0076C0"/>
</svg>
