<svg width="30" height="21" viewBox="0 0 30 21" fill="none" xmlns="http://www.w3.org/2000/svg">
<path d="M13.2016 1.64723C11.239 0.691715 9.08433 0.196746 6.90156 0.200028C4.64256 0.200028 2.50416 0.722028 0.601562 1.64723V19.6472C2.5641 18.6918 4.7188 18.1968 6.90156 18.2C9.90576 18.2 12.694 19.118 15.0016 20.693C17.3885 19.0645 20.212 18.1954 23.1016 18.2C25.3606 18.2 27.499 18.722 29.4016 19.6472V1.64723C27.439 0.691715 25.2843 0.196746 23.1016 0.200028C20.8426 0.200028 18.7042 0.722028 16.8016 1.64723V14.6C16.8016 15.0774 16.6119 15.5353 16.2744 15.8728C15.9368 16.2104 15.479 16.4 15.0016 16.4C14.5242 16.4 14.0663 16.2104 13.7288 15.8728C13.3912 15.5353 13.2016 15.0774 13.2016 14.6V1.64723Z" fill="#0076C0"/>
</svg>
