<svg width="30" height="22" viewBox="0 0 30 22" fill="none" xmlns="http://www.w3.org/2000/svg">
<path fill-rule="evenodd" clip-rule="evenodd" d="M4.20156 0.199951C2.21256 0.199951 0.601562 1.81095 0.601562 3.79995V18.1999C0.601562 20.1889 2.21256 21.7999 4.20156 21.7999H25.8016C27.7906 21.7999 29.4016 20.1889 29.4016 18.1999V7.39995C29.4016 5.41095 27.7906 3.79995 25.8016 3.79995H16.8016L13.2016 0.199951H4.20156ZM16.8016 9.19995C16.8016 8.20635 15.9952 7.39995 15.0016 7.39995C14.008 7.39995 13.2016 8.20635 13.2016 9.19995V12.0547L12.6742 11.5274C11.9722 10.8236 10.831 10.8236 10.129 11.5274C9.42516 12.2294 9.42516 13.3705 10.129 14.0725L13.729 17.6725C14.431 18.3763 15.5722 18.3763 16.2742 17.6725L19.8742 14.0725C20.578 13.3705 20.578 12.2294 19.8742 11.5274C19.1722 10.8236 18.031 10.8236 17.329 11.5274L16.8016 12.0547V9.19995Z" fill="#0076C0"/>
</svg>
