<svg width="22" height="28" viewBox="0 0 22 28" fill="none" xmlns="http://www.w3.org/2000/svg">
<path fill-rule="evenodd" clip-rule="evenodd" d="M0.199219 4.00002C0.199219 3.04525 0.578503 2.12957 1.25363 1.45444C1.92876 0.779309 2.84444 0.400024 3.79922 0.400024C3.79922 1.83219 4.36815 3.2057 5.38084 4.2184C6.39354 5.2311 7.76705 5.80002 9.19922 5.80002H12.7992C14.2314 5.80002 15.6049 5.2311 16.6176 4.2184C17.6303 3.2057 18.1992 1.83219 18.1992 0.400024C19.154 0.400024 20.0697 0.779309 20.7448 1.45444C21.4199 2.12957 21.7992 3.04525 21.7992 4.00002V23.8C21.7992 24.7548 21.4199 25.6705 20.7448 26.3456C20.0697 27.0207 19.154 27.4 18.1992 27.4H3.79922C2.84444 27.4 1.92876 27.0207 1.25363 26.3456C0.578503 25.6705 0.199219 24.7548 0.199219 23.8V4.00002ZM17.6718 14.2726C17.9997 13.9331 18.1811 13.4785 18.177 13.0065C18.1729 12.5345 17.9836 12.0831 17.6499 11.7494C17.3162 11.4156 16.8647 11.2263 16.3927 11.2222C15.9208 11.2181 15.4661 11.3995 15.1266 11.7274L9.19922 17.6548L6.87182 15.3274C6.53233 14.9995 6.07765 14.8181 5.6057 14.8222C5.13374 14.8263 4.68228 15.0156 4.34855 15.3494C4.01481 15.6831 3.82551 16.1345 3.8214 16.6065C3.8173 17.0785 3.99873 17.5331 4.32662 17.8726L7.92662 21.4726C8.26417 21.8101 8.72192 21.9996 9.19922 21.9996C9.67651 21.9996 10.1343 21.8101 10.4718 21.4726L17.6718 14.2726Z" fill="#0076C0"/>
</svg>
