<svg width="34" height="28" viewBox="0 0 34 28" fill="none" xmlns="http://www.w3.org/2000/svg">
<path d="M22.4008 5.80002C22.4008 7.23219 21.8319 8.60571 20.8192 9.6184C19.8065 10.6311 18.433 11.2 17.0008 11.2C15.5686 11.2 14.1951 10.6311 13.1824 9.6184C12.1697 8.60571 11.6008 7.23219 11.6008 5.80002C11.6008 4.36786 12.1697 2.99434 13.1824 1.98165C14.1951 0.968952 15.5686 0.400024 17.0008 0.400024C18.433 0.400024 19.8065 0.968952 20.8192 1.98165C21.8319 2.99434 22.4008 4.36786 22.4008 5.80002ZM31.4008 9.40002C31.4008 10.3548 31.0215 11.2705 30.3464 11.9456C29.6712 12.6207 28.7556 13 27.8008 13C26.846 13 25.9303 12.6207 25.2552 11.9456C24.5801 11.2705 24.2008 10.3548 24.2008 9.40002C24.2008 8.44525 24.5801 7.52957 25.2552 6.85444C25.9303 6.17931 26.846 5.80002 27.8008 5.80002C28.7556 5.80002 29.6712 6.17931 30.3464 6.85444C31.0215 7.52957 31.4008 8.44525 31.4008 9.40002ZM24.2008 22C24.2008 20.0905 23.4422 18.2591 22.092 16.9089C20.7417 15.5586 18.9103 14.8 17.0008 14.8C15.0912 14.8 13.2599 15.5586 11.9096 16.9089C10.5594 18.2591 9.80078 20.0905 9.80078 22V27.4H24.2008V22ZM9.80078 9.40002C9.80078 10.3548 9.4215 11.2705 8.74637 11.9456C8.07124 12.6207 7.15556 13 6.20078 13C5.246 13 4.33033 12.6207 3.6552 11.9456C2.98007 11.2705 2.60078 10.3548 2.60078 9.40002C2.60078 8.44525 2.98007 7.52957 3.6552 6.85444C4.33033 6.17931 5.246 5.80002 6.20078 5.80002C7.15556 5.80002 8.07124 6.17931 8.74637 6.85444C9.4215 7.52957 9.80078 8.44525 9.80078 9.40002ZM27.8008 27.4V22C27.8034 20.1699 27.3387 18.3695 26.4508 16.7692C27.2488 16.565 28.0829 16.5457 28.8895 16.7129C29.6961 16.8801 30.4539 17.2293 31.105 17.7339C31.7561 18.2384 32.2834 18.8851 32.6466 19.6244C33.0098 20.3638 33.1994 21.1763 33.2008 22V27.4H27.8008ZM7.55078 16.7692C6.66293 18.3695 6.19826 20.1699 6.20078 22V27.4H0.800782V22C0.800435 21.1757 0.988815 20.3622 1.35149 19.622C1.71416 18.8817 2.24149 18.2343 2.89307 17.7294C3.54465 17.2244 4.30319 16.8754 5.11054 16.709C5.91789 16.5425 6.75263 16.5631 7.55078 16.7692Z" fill="#0076C0"/>
</svg>
