<svg width="370" height="477" viewBox="0 0 370 477" fill="none" xmlns="http://www.w3.org/2000/svg">
<g opacity="0.16">
<path fill-rule="evenodd" clip-rule="evenodd" d="M255.038 185.819L369.744 276.208L369.744 386.113L348.94 385.691C348.925 385.691 348.906 385.691 348.882 385.691C348.757 385.692 348.498 385.696 348.119 385.709C347.359 385.736 346.124 385.802 344.506 385.966C341.251 386.296 336.556 387.009 331.124 388.53C320.111 391.614 307.108 397.719 296.519 409.513C282.815 424.777 275.948 441.751 272.496 455.013C270.771 461.639 269.929 467.233 269.52 471.03C269.317 472.922 269.223 474.345 269.181 475.2C269.16 475.627 269.152 475.91 269.149 476.036C269.147 476.099 269.147 476.123 269.147 476.105L269.148 476.048L269.148 475.996L269.148 475.946C269.148 475.937 269.148 475.928 248.617 475.928C228.086 475.928 228.086 475.918 228.086 475.908L228.086 475.843L228.086 475.741C228.087 475.668 228.087 475.582 228.089 475.486C228.091 475.293 228.095 475.056 228.101 474.774C228.115 474.212 228.139 473.476 228.184 472.58C228.272 470.788 228.441 468.346 228.761 465.367C229.401 459.422 230.654 451.249 233.121 441.773C238.051 422.831 247.951 398.265 267.778 376.181C285.271 356.697 305.801 347.557 321.299 343.216C323.881 342.493 326.352 341.895 328.681 341.4L328.681 300.639L242.196 232.488L67.0791 232.488C69.8269 245.968 75.3972 261.722 86.2831 274.437C100.726 291.308 119.715 304.724 150.033 304.724V351.393C106.581 351.393 77.471 331.066 56.8535 306.983C27.1631 272.303 23.54 226.676 23.54 209.154L23.54 185.819L255.038 185.819Z" fill="url(#paint0_linear_4_21)"/>
<path fill-rule="evenodd" clip-rule="evenodd" d="M75.8461 80.3463L75.9272 80.4139C67.9266 60.1242 64.4073 38.6031 64.4073 19.0611H105.47C105.47 40.2418 111.497 64.0366 124.703 82.0947C137.195 99.1764 157.209 112.706 188.812 113.098C189.263 113.1 189.716 113.101 190.169 113.101V113.096C214.926 113.096 237.023 103.618 252.603 89.4499C268.255 75.2161 276.27 57.4276 276.27 40.3918H317.332C317.332 74.7128 301.291 104.944 278.257 125.89C255.165 146.89 223.97 159.75 190.229 159.765V159.776C189.659 159.776 189.091 159.773 188.524 159.767C131.186 159.499 84.51 145.461 51.5514 117.971C17.4878 89.5583 0 48.3028 0 0H41.0623C41.0623 34.2051 52.8527 61.1676 75.8461 80.3463Z" fill="url(#paint1_linear_4_21)"/>
</g>
<defs>
<linearGradient id="paint0_linear_4_21" x1="485.626" y1="493.636" x2="189.334" y2="87.788" gradientUnits="userSpaceOnUse">
<stop stop-color="#FF6E00"/>
<stop offset="1" stop-color="#FFA100"/>
</linearGradient>
<linearGradient id="paint1_linear_4_21" x1="423.55" y1="169.422" x2="297.632" y2="-117.812" gradientUnits="userSpaceOnUse">
<stop stop-color="#FF6E00"/>
<stop offset="1" stop-color="#FFA100"/>
</linearGradient>
</defs>
</svg>
