<svg width="32" height="33" viewBox="0 0 32 33" fill="none" xmlns="http://www.w3.org/2000/svg">
<g id="Frame">
<path id="Vector" d="M2.66699 4.3335H10.667C12.0815 4.3335 13.438 4.8954 14.4382 5.89559C15.4384 6.89579 16.0003 8.25234 16.0003 9.66683V28.3335C16.0003 27.2726 15.5789 26.2552 14.8288 25.5051C14.0786 24.7549 13.0612 24.3335 12.0003 24.3335H2.66699V4.3335Z" stroke="#00AAE7" stroke-width="2.66667" stroke-linecap="round" stroke-linejoin="round"/>
<path id="Vector_2" d="M29.3333 4.3335H21.3333C19.9188 4.3335 18.5623 4.8954 17.5621 5.89559C16.5619 6.89579 16 8.25234 16 9.66683V28.3335C16 27.2726 16.4214 26.2552 17.1716 25.5051C17.9217 24.7549 18.9391 24.3335 20 24.3335H29.3333V4.3335Z" stroke="#00AAE7" stroke-width="2.66667" stroke-linecap="round" stroke-linejoin="round"/>
<path id="Vector_3" d="M8 11.0001H10.6667" stroke="#00AAE7" stroke-width="2.66667" stroke-linecap="round" stroke-linejoin="round"/>
<path id="Vector_4" d="M8 16.3335H10.6667" stroke="#00AAE7" stroke-width="2.66667" stroke-linecap="round" stroke-linejoin="round"/>
<path id="Vector_5" d="M21.333 11.0001H23.9997" stroke="#00AAE7" stroke-width="2.66667" stroke-linecap="round" stroke-linejoin="round"/>
<path id="Vector_6" d="M21.333 16.3335H23.9997" stroke="#00AAE7" stroke-width="2.66667" stroke-linecap="round" stroke-linejoin="round"/>
</g>
</svg>
