<svg width="32" height="33" viewBox="0 0 32 33" fill="none" xmlns="http://www.w3.org/2000/svg">
<g id="Frame">
<path id="Vector" d="M21.3337 28.3335V25.6668C21.3337 24.2523 20.7718 22.8958 19.7716 21.8956C18.7714 20.8954 17.4148 20.3335 16.0003 20.3335H8.00033C6.58584 20.3335 5.22928 20.8954 4.22909 21.8956C3.2289 22.8958 2.66699 24.2523 2.66699 25.6668V28.3335" stroke="#00AAE7" stroke-width="2.66667" stroke-linecap="round" stroke-linejoin="round"/>
<path id="Vector_2" d="M12.0003 15.0002C14.9458 15.0002 17.3337 12.6123 17.3337 9.66683C17.3337 6.72131 14.9458 4.3335 12.0003 4.3335C9.05481 4.3335 6.66699 6.72131 6.66699 9.66683C6.66699 12.6123 9.05481 15.0002 12.0003 15.0002Z" stroke="#00AAE7" stroke-width="2.66667" stroke-linecap="round" stroke-linejoin="round"/>
<path id="Vector_3" d="M29.333 28.3335V25.6668C29.3321 24.4851 28.9388 23.3372 28.2148 22.4033C27.4908 21.4693 26.4772 20.8023 25.333 20.5068" stroke="#00AAE7" stroke-width="2.66667" stroke-linecap="round" stroke-linejoin="round"/>
<path id="Vector_4" d="M21.333 4.50684C22.4802 4.80057 23.4971 5.46777 24.2232 6.40325C24.9493 7.33873 25.3435 8.48928 25.3435 9.6735C25.3435 10.8577 24.9493 12.0083 24.2232 12.9438C23.4971 13.8792 22.4802 14.5464 21.333 14.8402" stroke="#00AAE7" stroke-width="2.66667" stroke-linecap="round" stroke-linejoin="round"/>
</g>
</svg>
