<svg width="32" height="33" viewBox="0 0 32 33" fill="none" xmlns="http://www.w3.org/2000/svg">
<g id="Frame">
<path id="Vector" d="M16 16.3335H16.0133" stroke="#00AAE7" stroke-width="2.66667" stroke-linecap="round" stroke-linejoin="round"/>
<path id="Vector_2" d="M21.3337 8.33346V5.66679C21.3337 4.95954 21.0527 4.28127 20.5526 3.78117C20.0525 3.28107 19.3742 3.00012 18.667 3.00012H13.3337C12.6264 3.00012 11.9481 3.28107 11.448 3.78117C10.9479 4.28127 10.667 4.95954 10.667 5.66679V8.33346" stroke="#00AAE7" stroke-width="2.66667" stroke-linecap="round" stroke-linejoin="round"/>
<path id="Vector_3" d="M29.3337 17.6669C25.3774 20.2788 20.7411 21.6713 16.0003 21.6713C11.2596 21.6713 6.62327 20.2788 2.66699 17.6669" stroke="#00AAE7" stroke-width="2.66667" stroke-linecap="round" stroke-linejoin="round"/>
<path id="Vector_4" d="M26.667 8.3335H5.33366C3.8609 8.3335 2.66699 9.5274 2.66699 11.0002V24.3335C2.66699 25.8063 3.8609 27.0002 5.33366 27.0002H26.667C28.1398 27.0002 29.3337 25.8063 29.3337 24.3335V11.0002C29.3337 9.5274 28.1398 8.3335 26.667 8.3335Z" stroke="#00AAE7" stroke-width="2.66667" stroke-linecap="round" stroke-linejoin="round"/>
</g>
</svg>
